<?xml version="1.0" encoding="UTF-8"?> <svg xmlns="http://www.w3.org/2000/svg" width="21" height="21" viewBox="0 0 21 21" fill="none"><g id="zondicons:checkmark-outline" clip-path="url(#clip0_157_6880)"><path id="Vector" d="M3.18667 17.8099C2.23157 16.8875 1.46975 15.784 0.945657 14.564C0.421567 13.344 0.145705 12.0318 0.134167 10.704C0.122628 9.37617 0.375645 8.05937 0.878454 6.83041C1.38126 5.60144 2.12379 4.48492 3.06272 3.546C4.00165 2.60707 5.11817 1.86454 6.34713 1.36173C7.57609 0.858922 8.89289 0.605905 10.2207 0.617443C11.5485 0.628981 12.8607 0.904843 14.0807 1.42893C15.3008 1.95302 16.4042 2.71485 17.3267 3.66995C19.1483 5.55597 20.1562 8.08199 20.1334 10.704C20.1106 13.3259 19.0589 15.8341 17.2049 17.6881C15.3508 19.5422 12.8427 20.5939 10.2207 20.6167C7.59872 20.6395 5.07269 19.6315 3.18667 17.8099ZM15.9167 16.3999C17.4178 14.8988 18.2611 12.8629 18.2611 10.7399C18.2611 8.61704 17.4178 6.58107 15.9167 5.07995C14.4155 3.57882 12.3796 2.7355 10.2567 2.7355C8.13376 2.7355 6.0978 3.57882 4.59667 5.07995C3.09555 6.58107 2.25222 8.61704 2.25222 10.7399C2.25222 12.8629 3.09555 14.8988 4.59667 16.3999C6.0978 17.9011 8.13376 18.7444 10.2567 18.7444C12.3796 18.7444 14.4155 17.9011 15.9167 16.3999ZM6.95667 10.0299L9.25667 12.3399L13.5567 8.03995L14.9567 9.45995L9.25667 15.1399L5.55667 11.4399L6.95667 10.0199V10.0299Z" fill="#BA7C44"></path></g><defs><clipPath id="clip0_157_6880"><rect width="20" height="20" fill="white" transform="translate(0.256836 0.73999)"></rect></clipPath></defs></svg> 